<?xml version="1.0" standalone="no"?>
<!DOCTYPE svg PUBLIC "-//W3C//DTD SVG 20010904//EN"
 "http://www.w3.org/TR/2001/REC-SVG-20010904/DTD/svg10.dtd">
<svg version="1.0" xmlns="http://www.w3.org/2000/svg"
 width="300.000000pt" height="300.000000pt" viewBox="0 0 300.000000 300.000000"
 preserveAspectRatio="xMidYMid meet">
<metadata>
Created by potrace 1.11, written by Peter Selinger 2001-2013
</metadata>
<g transform="translate(0.000000,300.000000) scale(0.100000,-0.100000)"
fill="#000000" stroke="none">
<path d="M0 1500 l0 -1500 1500 0 1500 0 0 1500 0 1500 -1500 0 -1500 0 0
-1500z m1117 1396 c145 -47 290 -164 357 -285 l26 -49 -66 -41 c-37 -23 -67
-41 -68 -39 -2 2 -14 23 -28 48 -62 107 -193 199 -338 236 -88 22 -251 15
-334 -14 -176 -64 -316 -206 -383 -390 -127 -348 -14 -722 278 -915 82 -55
159 -78 274 -84 234 -12 435 95 550 292 10 16 16 14 78 -16 76 -38 77 -39 22
-124 -116 -179 -372 -305 -621 -306 -126 0 -215 20 -321 72 -211 104 -390 331
-453 574 -94 360 54 764 349 953 148 95 254 123 451 118 125 -2 156 -6 227
-30z m1370 -1322 c35 -7 92 -27 128 -43 l64 -29 85 34 c90 37 156 47 163 27 3
-7 -2 -13 -11 -13 -26 0 -109 -30 -154 -57 l-43 -25 41 -45 c63 -67 84 -123
85 -218 0 -71 -4 -88 -33 -147 -56 -114 -216 -240 -365 -288 -35 -11 -36 -13
-22 -33 21 -30 19 -117 -4 -178 -23 -61 -80 -137 -177 -239 -76 -80 -89 -103
-78 -144 15 -62 129 -73 238 -23 42 20 83 52 145 115 92 93 142 169 193 294
17 42 36 74 41 71 5 -3 7 -32 5 -63 -12 -166 -205 -385 -404 -459 -73 -28
-164 -28 -221 0 -59 29 -76 64 -71 149 5 98 47 176 157 292 96 102 111 124
111 163 l0 27 -63 -7 c-98 -11 -177 33 -118 65 26 13 110 13 164 -2 44 -11 45
-11 114 35 84 56 147 121 208 216 86 133 108 254 62 342 -13 24 -31 45 -39 47
-21 4 -147 -99 -243 -199 -95 -100 -186 -212 -298 -369 -191 -269 -402 -505
-552 -618 -89 -67 -227 -137 -301 -152 -83 -17 -199 -9 -252 19 -78 40 -102
143 -45 187 25 18 97 18 113 -1 17 -20 5 -62 -21 -76 -12 -6 -34 -9 -50 -7
-38 6 -39 -19 -3 -55 37 -37 86 -50 170 -45 176 12 293 121 674 633 232 311
408 486 665 660 93 63 94 65 72 79 -12 8 -51 25 -87 37 -90 31 -335 39 -463
15 -247 -47 -479 -178 -612 -348 -64 -81 -91 -136 -105 -207 -24 -128 42 -211
168 -211 130 0 290 124 433 336 64 95 116 204 125 260 7 51 20 57 29 15 16
-76 -47 -268 -124 -377 -117 -165 -259 -251 -431 -261 -74 -5 -92 -3 -126 15
-47 24 -101 81 -110 117 -15 59 1 151 38 226 163 330 719 556 1135 463z"/>
<path d="M2217 783 c-33 -9 -6 -23 43 -23 56 0 74 15 29 24 -34 6 -44 6 -72
-1z"/>
</g>
</svg>
