<svg width="768" height="307" viewBox="0 0 768 307" fill="none" xmlns="http://www.w3.org/2000/svg">
<g clip-path="url(#clip0_7_2)">
<path d="M148.244 38.3477L137.143 46.8652C131.018 38.89 123.648 32.8607 115.035 28.7773C106.486 24.6302 97.0749 22.5566 86.8027 22.5566C75.5736 22.5566 65.1738 25.2682 55.6035 30.6914C46.0332 36.0508 38.6003 43.2923 33.3047 52.416C28.0729 61.4759 25.457 71.6842 25.457 83.041C25.457 100.204 31.3268 114.527 43.0664 126.012C54.8698 137.496 69.7357 143.238 87.6641 143.238C107.379 143.238 123.872 135.518 137.143 120.078L148.244 128.5C141.226 137.432 132.453 144.355 121.926 149.268C111.462 154.117 99.7546 156.541 86.8027 156.541C62.1751 156.541 42.7474 148.342 28.5195 131.945C16.5885 118.1 10.623 101.384 10.623 81.7969C10.623 61.1888 17.8327 43.8665 32.252 29.8301C46.735 15.7298 64.8548 8.67969 86.6113 8.67969C99.7546 8.67969 111.622 11.2956 122.213 16.5273C132.804 21.6953 141.481 28.9688 148.244 38.3477ZM234.09 12.2207L299.742 153H284.621L262.514 106.68H201.838L179.826 153H164.131L230.645 12.2207H234.09ZM232.367 42.0801L208.154 93.0898H256.293L232.367 42.0801ZM321.658 12.2207H335.822V139.41H389.895V153H321.658V12.2207ZM479.281 8.67969C500.591 8.67969 518.424 15.7936 532.779 30.0215C547.135 44.2493 554.312 61.763 554.312 82.5625C554.312 103.171 547.135 120.652 532.779 135.008C518.488 149.363 501.038 156.541 480.43 156.541C459.566 156.541 441.957 149.395 427.602 135.104C413.246 120.812 406.068 103.521 406.068 83.2324C406.068 69.7064 409.322 57.1693 415.83 45.6211C422.402 34.0729 431.334 25.0449 442.627 18.5371C453.92 11.9655 466.138 8.67969 479.281 8.67969ZM479.951 22.4609C469.551 22.4609 459.694 25.1725 450.379 30.5957C441.064 36.0189 433.79 43.3242 428.559 52.5117C423.327 61.6992 420.711 71.9395 420.711 83.2324C420.711 99.9486 426.485 114.081 438.033 125.629C449.645 137.113 463.618 142.855 479.951 142.855C490.861 142.855 500.942 140.208 510.193 134.912C519.508 129.617 526.75 122.375 531.918 113.188C537.15 104 539.766 93.7917 539.766 82.5625C539.766 71.3971 537.15 61.3164 531.918 52.3203C526.75 43.2604 519.445 36.0189 510.002 30.5957C500.559 25.1725 490.542 22.4609 479.951 22.4609ZM582.641 153V12.2207H585.703L679.301 119.982V12.2207H693.178V153H690.02L597.188 46.5781V153H582.641Z" fill="white"/>
<path d="M327.816 146.904C327.816 158.744 319.331 171.521 302.36 185.236C290.619 194.609 273.5 205.216 251.004 217.056C256.036 219.917 262.745 223.913 271.132 229.044C279.519 234.175 289.879 240.44 302.212 247.84C305.172 249.912 311.092 252.675 319.972 256.128C319.972 257.411 319.873 258.101 319.676 258.2C319.577 258.2 318.393 258.299 316.124 258.496C307.145 258.496 281.788 246.113 240.052 221.348C238.079 222.433 235.365 223.667 231.912 225.048C228.557 226.429 224.315 228.008 219.184 229.784C213.264 231.757 207.887 233.336 203.052 234.52C198.217 235.605 193.728 236.395 189.584 236.888C185.44 242.413 181.099 247.889 176.56 253.316C172.021 258.743 167.088 264.416 161.76 270.336C146.171 287.603 135.465 296.335 129.644 296.532C128.065 296.532 127.276 295.2 127.276 292.536C127.276 291.549 127.868 290.513 129.052 289.428C130.335 288.441 131.371 287.899 132.16 287.8C132.851 287.8 133.64 287.997 134.528 288.392C134.923 288.589 135.268 288.688 135.564 288.688C135.86 288.688 136.107 288.688 136.304 288.688C152.288 276.453 168.469 259.335 184.848 237.332C175.376 237.332 166.397 234.273 157.912 228.156C149.821 222.335 145.727 215.675 145.628 208.176C145.628 200.875 148.736 194.56 154.952 189.232C158.109 186.568 161.563 184.595 165.312 183.312C169.061 182.029 173.156 181.339 177.596 181.24C189.337 181.24 202.411 185.581 216.816 194.264C248.981 150.851 278.039 128.996 303.988 128.7C307.441 128.7 310.5 129.193 313.164 130.18C315.927 131.068 318.541 132.351 321.008 134.028C325.448 137.481 327.717 141.773 327.816 146.904ZM319.972 150.16C319.972 146.115 317.653 142.711 313.016 139.948C308.379 137.284 303.396 135.952 298.068 135.952C285.044 135.952 271.675 141.872 257.96 153.712C250.264 160.421 237.585 174.58 219.924 196.188C221.7 197.964 231.32 204.229 248.784 214.984C258.453 209.952 267.185 204.969 274.98 200.036C282.775 195.103 289.78 190.071 295.996 184.94C311.98 171.916 319.972 160.323 319.972 150.16ZM214.892 203.884L194.32 230.968C205.469 230.475 219.825 226.528 237.388 219.128L214.892 203.884ZM211.192 201.516C207.344 198.26 202.608 195.201 196.984 192.34C189.189 188.295 182.036 186.272 175.524 186.272C168.223 186.272 161.957 188.147 156.728 191.896C151.597 195.547 149.032 200.036 149.032 205.364C149.032 212.665 153.965 218.98 163.832 224.308C168.272 226.676 172.613 228.403 176.856 229.488C181.197 230.475 185.539 230.968 189.88 230.968L211.192 201.516ZM405.684 138.468C405.684 142.513 401.046 150.012 391.772 160.964C383.286 170.831 374.801 179.464 366.316 186.864C357.929 194.264 349.394 200.529 340.712 205.66C339.232 206.647 337.752 207.584 336.272 208.472C334.792 209.36 333.262 210.248 331.684 211.136C328.724 213.011 324.382 215.132 318.66 217.5L310.224 229.932C311.013 229.439 313.48 227.86 317.624 225.196C321.866 222.433 327.836 218.487 335.532 213.356C340.958 209.804 344.658 207.979 346.632 207.88C348.013 207.88 348.704 208.62 348.704 210.1C348.704 210.297 348.358 210.939 347.668 212.024C347.076 213.011 346.04 214.491 344.56 216.464C341.994 220.115 340.712 223.173 340.712 225.64C340.712 226.528 340.712 227.317 340.712 228.008C340.81 228.699 341.008 229.291 341.304 229.784C341.698 230.376 342.34 230.771 343.228 230.968C344.116 231.165 345.25 231.363 346.632 231.56C349.197 231.56 356.104 227.515 367.352 219.424C374.949 213.8 378.748 210.988 378.748 210.988C379.142 210.988 379.438 211.432 379.636 212.32C379.636 212.616 378.501 213.751 376.232 215.724C372.68 218.487 370.41 220.46 369.424 221.644C367.845 223.025 366.118 224.407 364.244 225.788C362.468 227.169 360.494 228.6 358.324 230.08C351.614 233.928 346.286 235.901 342.34 236C336.617 236 333.608 233.435 333.312 228.304C333.312 227.416 333.41 226.232 333.608 224.752C333.805 223.173 334.101 221.249 334.496 218.98C334.2 218.98 333.756 219.029 333.164 219.128C332.572 219.227 331.881 219.523 331.092 220.016C330.796 220.213 329.217 221.348 326.356 223.42C323.593 225.393 319.597 228.353 314.368 232.3C311.506 234.372 309.188 235.951 307.412 237.036C305.537 238.121 304.106 238.713 303.12 238.812C302.528 238.812 302.084 238.269 301.788 237.184C301.788 236.296 302.281 235.063 303.268 233.484C304.156 231.807 305.488 229.636 307.264 226.972C310.421 222.532 312.986 218.98 314.96 216.316C316.933 213.652 318.216 211.827 318.808 210.84C323.346 203.637 328.872 195.991 335.384 187.9C341.994 179.809 349.641 171.127 358.324 161.852C376.873 141.724 389.502 131.512 396.212 131.216C398.58 131.216 400.75 131.956 402.724 133.436C404.697 134.817 405.684 136.495 405.684 138.468ZM398.876 140.096C398.876 137.235 397.248 135.804 393.992 135.804C389.848 135.804 383.78 139.504 375.788 146.904C373.42 149.272 370.361 152.528 366.612 156.672C362.961 160.816 358.57 165.848 353.44 171.768C348.309 177.984 343.968 183.213 340.416 187.456C336.864 191.6 334.101 194.905 332.128 197.372C328.97 201.516 326.553 204.871 324.876 207.436C323.198 209.903 322.162 211.777 321.768 213.06C326.109 212.369 334.693 207.288 347.52 197.816C354.032 192.883 360.1 187.949 365.724 183.016C371.446 178.083 376.824 173.001 381.856 167.772C393.005 155.833 398.678 146.608 398.876 140.096ZM391.73 200.628C391.73 203.391 389.757 204.772 385.81 204.772C381.962 204.772 380.038 203.391 380.038 200.628C380.038 197.767 381.962 196.336 385.81 196.336C389.757 196.336 391.73 197.767 391.73 200.628ZM415.854 211.728C415.854 212.32 415.607 212.813 415.114 213.208C409.786 217.845 405.494 221.496 402.238 224.16C398.982 226.824 396.614 228.649 395.134 229.636C386.451 236.049 379.841 239.256 375.302 239.256C372.539 239.256 369.925 238.417 367.458 236.74C365.189 235.161 363.955 233.188 363.758 230.82C363.758 227.169 365.682 222.877 369.53 217.944C372.983 213.405 376.042 210.84 378.706 210.248C379.989 210.248 380.63 210.692 380.63 211.58C380.63 212.369 379.051 214.54 375.894 218.092C373.131 221.644 371.651 224.999 371.454 228.156C371.454 232.103 373.279 234.125 376.93 234.224C381.074 234.224 393.506 226.528 414.226 211.136C414.423 210.939 414.719 210.84 415.114 210.84C415.41 210.84 415.657 211.136 415.854 211.728ZM498.159 211.728C498.159 212.419 497.913 212.961 497.419 213.356C494.262 217.105 489.378 221.397 482.767 226.232C478.327 229.389 474.282 231.757 470.631 233.336C466.981 234.816 463.626 235.605 460.567 235.704C457.903 235.704 454.598 233.681 450.651 229.636C443.153 237.135 436.887 240.933 431.855 241.032C430.277 241.032 428.55 239.996 426.675 237.924C425.886 236.839 425.245 235.655 424.751 234.372C424.357 233.089 424.159 231.757 424.159 230.376C424.159 228.304 424.801 226.183 426.083 224.012C422.433 227.367 417.845 230.623 412.319 233.78C406.991 236.74 403.094 238.22 400.627 238.22C399.838 238.22 399.197 238.171 398.703 238.072C398.21 238.072 397.766 237.875 397.371 237.48C397.174 237.085 396.977 235.852 396.779 233.78C396.779 230.327 398.703 226.38 402.551 221.94C404.525 220.065 406.449 218.191 408.323 216.316C410.198 214.343 412.122 212.369 414.095 210.396C415.97 208.521 417.894 207.584 419.867 207.584C421.742 207.584 422.729 208.817 422.827 211.284C422.827 211.481 422.137 211.777 420.755 212.172C420.065 212.369 419.522 212.567 419.127 212.764C418.733 212.863 418.437 212.961 418.239 213.06C413.109 216.809 409.31 220.115 406.843 222.976C404.377 225.837 403.045 228.353 402.847 230.524C402.847 231.511 403.637 232.053 405.215 232.152C409.261 232.152 419.621 225.492 436.295 212.172C436.493 211.975 436.69 211.876 436.887 211.876C437.183 211.777 437.43 211.679 437.627 211.58C438.318 211.58 438.713 212.172 438.811 213.356C438.811 212.863 437.529 214.491 434.963 218.24C433.681 220.016 432.694 221.792 432.003 223.568C431.411 225.245 431.115 227.071 431.115 229.044C431.115 232.793 433.187 234.717 437.331 234.816C439.107 234.816 442.955 232.3 448.875 227.268C447.987 226.084 447.346 224.653 446.951 222.976C446.557 221.2 446.31 219.227 446.211 217.056C446.211 214.491 446.853 212.271 448.135 210.396C448.925 209.508 449.763 208.817 450.651 208.324C451.539 207.831 452.625 207.584 453.907 207.584C457.755 207.584 459.679 209.755 459.679 214.096C459.679 219.029 457.607 223.519 453.463 227.564C456.127 230.919 458.643 232.596 461.011 232.596C465.649 232.596 471.914 230.031 479.807 224.9C487.207 220.065 492.782 215.477 496.531 211.136C496.63 210.741 496.926 210.643 497.419 210.84C497.715 210.84 497.962 211.136 498.159 211.728ZM457.311 214.54C457.311 211.679 456.423 210.248 454.647 210.248C451.194 210.248 449.467 212.369 449.467 216.612C449.467 219.671 450.109 222.433 451.391 224.9C452.674 223.42 453.611 222.285 454.203 221.496C454.894 220.707 455.338 220.213 455.535 220.016C456.621 218.339 457.213 216.513 457.311 214.54ZM555.382 149.272C555.382 150.16 554.445 151.541 552.57 153.416C551.288 154.6 550.005 155.784 548.722 156.968C547.538 158.152 546.256 159.435 544.874 160.816C538.264 167.328 532.196 173.593 526.67 179.612C521.145 185.631 516.014 191.452 511.278 197.076C498.748 212.271 492.482 222.828 492.482 228.748C492.482 230.82 493.173 232.399 494.554 233.484C495.936 234.767 497.662 235.408 499.734 235.408C504.964 235.408 510.193 231.708 515.422 224.308C519.566 218.191 521.688 213.553 521.786 210.396C521.786 208.521 520.306 207.485 517.346 207.288C515.274 207.288 513.252 208.571 511.278 211.136C510.292 212.419 509.601 213.553 509.206 214.54C508.91 215.527 508.664 216.513 508.466 217.5C508.466 218.487 508.91 219.325 509.798 220.016C510.785 220.707 511.278 221.249 511.278 221.644C511.278 222.729 510.341 223.272 508.466 223.272C505.901 223.272 504.618 221.644 504.618 218.388C504.618 214.54 506.74 210.84 510.982 207.288C514.633 204.525 517.988 203.045 521.046 202.848C522.428 202.848 523.858 203.44 525.338 204.624C526.621 205.709 527.262 206.992 527.262 208.472C527.262 213.011 523.858 219.424 517.05 227.712C509.354 236.789 501.56 241.328 493.666 241.328C488.141 241.328 485.329 238.615 485.23 233.188C485.23 228.057 488.388 221.249 494.702 212.764C495.196 212.271 497.12 210.001 500.474 205.956C503.928 201.812 508.91 195.843 515.422 188.048C517.396 185.68 519.961 182.868 523.118 179.612C526.276 176.257 530.074 172.36 534.514 167.92C537.968 164.664 540.484 162.099 542.062 160.224C543.74 158.349 544.677 157.165 544.874 156.672L544.282 156.376C543.888 156.179 543.444 155.833 542.95 155.34C541.668 154.748 541.026 154.057 541.026 153.268C541.026 152.479 545.022 150.752 553.014 148.088C554.494 148.088 555.284 148.483 555.382 149.272ZM591.535 211.728C591.535 212.32 591.337 212.863 590.943 213.356C585.812 217.697 581.471 221.249 577.919 224.012C574.367 226.775 571.555 228.847 569.483 230.228C559.616 236.839 550.687 240.243 542.695 240.44C535.887 240.44 532.433 236.937 532.335 229.932C532.335 225.591 534.851 220.509 539.883 214.688C545.211 209.163 549.749 206.351 553.499 206.252C554.781 206.252 555.916 206.745 556.903 207.732C557.791 208.521 558.333 209.508 558.531 210.692C558.531 212.468 557.643 214.244 555.867 216.02C554.88 216.809 553.943 217.599 553.055 218.388C552.167 219.079 551.229 219.819 550.243 220.608C547.283 223.173 543.484 225.591 538.847 227.86C538.748 230.228 539.735 232.201 541.807 233.78C543.484 234.865 545.309 235.408 547.283 235.408C552.413 235.408 560.06 232.103 570.223 225.492C571.209 224.801 573.331 223.272 576.587 220.904C579.843 218.536 584.283 215.231 589.907 210.988C590.203 210.889 590.548 210.84 590.943 210.84C591.239 210.84 591.436 211.136 591.535 211.728ZM552.019 212.32C552.019 211.827 551.377 211.432 550.095 211.136C548.417 211.136 546.197 212.665 543.435 215.724C540.672 218.487 539.291 220.953 539.291 223.124C539.784 223.124 540.672 222.877 541.955 222.384C548.368 218.635 551.723 215.28 552.019 212.32ZM603.757 200.628C603.757 203.391 601.784 204.772 597.837 204.772C593.989 204.772 592.065 203.391 592.065 200.628C592.065 197.767 593.989 196.336 597.837 196.336C601.784 196.336 603.757 197.767 603.757 200.628ZM627.881 211.728C627.881 212.32 627.635 212.813 627.141 213.208C621.813 217.845 617.521 221.496 614.265 224.16C611.009 226.824 608.641 228.649 607.161 229.636C598.479 236.049 591.868 239.256 587.329 239.256C584.567 239.256 581.952 238.417 579.485 236.74C577.216 235.161 575.983 233.188 575.785 230.82C575.785 227.169 577.709 222.877 581.557 217.944C585.011 213.405 588.069 210.84 590.733 210.248C592.016 210.248 592.657 210.692 592.657 211.58C592.657 212.369 591.079 214.54 587.921 218.092C585.159 221.644 583.679 224.999 583.481 228.156C583.481 232.103 585.307 234.125 588.957 234.224C593.101 234.224 605.533 226.528 626.253 211.136C626.451 210.939 626.747 210.84 627.141 210.84C627.437 210.84 627.684 211.136 627.881 211.728ZM697.015 211.728C697.015 212.32 696.817 212.863 696.423 213.356C686.852 221.249 680.143 226.479 676.295 229.044C667.316 235.161 659.571 238.22 653.059 238.22C647.533 238.22 644.721 235.26 644.623 229.34C644.623 228.255 644.721 226.923 644.919 225.344C645.215 223.667 645.659 221.693 646.251 219.424C642.501 221.595 638.653 223.864 634.707 226.232C630.859 228.501 626.863 231.017 622.719 233.78C616.897 237.628 613.74 239.552 613.247 239.552C613.148 239.552 612.753 239.355 612.063 238.96C611.471 238.664 611.175 238.319 611.175 237.924C611.175 237.233 611.619 236.099 612.507 234.52C613.296 232.941 614.677 230.771 616.651 228.008C618.723 224.949 620.351 222.532 621.535 220.756C622.817 218.881 623.705 217.549 624.199 216.76C623.804 216.168 623.607 215.329 623.607 214.244C623.607 213.455 624.248 212.616 625.531 211.728C626.912 210.939 627.997 210.495 628.787 210.396C631.944 210.396 633.621 211.679 633.819 214.244C633.819 214.935 632.24 217.451 629.083 221.792C627.603 223.667 626.32 225.245 625.235 226.528C624.248 227.811 623.36 228.847 622.571 229.636C641.317 216.809 653.404 210.396 658.831 210.396C659.324 210.396 659.719 211.037 660.015 212.32C660.015 212.517 658.485 214.343 655.427 217.796C652.565 221.348 651.085 224.703 650.987 227.86C650.987 231.412 653.503 233.237 658.535 233.336C662.284 233.336 668.549 230.376 677.331 224.456C679.008 223.469 685.027 219.029 695.387 211.136C695.683 211.037 696.028 210.988 696.423 210.988C696.719 210.988 696.916 211.235 697.015 211.728ZM757.957 211.58C757.957 212.369 757.76 212.912 757.365 213.208C752.333 217.549 748.041 221.151 744.489 224.012C740.937 226.775 738.125 228.847 736.053 230.228C731.021 233.583 726.483 236.099 722.437 237.776C718.392 239.552 714.741 240.44 711.485 240.44C706.157 240.44 703.345 236.444 703.049 228.452C700.681 230.425 697.277 232.547 692.837 234.816C688.595 237.085 685.043 238.22 682.181 238.22C680.208 238.22 678.383 237.727 676.705 236.74C675.028 235.951 674.189 234.767 674.189 233.188C674.189 228.748 678.185 223.42 686.177 217.204C690.321 214.145 694.12 211.827 697.573 210.248C701.125 208.669 704.431 207.88 707.489 207.88C711.14 207.88 713.015 208.768 713.113 210.544C713.113 212.517 712.521 213.948 711.337 214.836C710.153 215.724 708.871 216.168 707.489 216.168C707.489 216.069 707.44 215.872 707.341 215.576C707.243 215.379 707.144 215.181 707.045 214.984C706.947 214.688 706.799 214.343 706.601 213.948C706.009 212.567 704.825 211.777 703.049 211.58C699.103 211.58 694.663 213.751 689.729 218.092C684.697 222.236 682.181 225.985 682.181 229.34C682.181 231.412 682.921 232.497 684.401 232.596C689.631 232.596 695.205 230.573 701.125 226.528C702.408 225.64 704.628 223.469 707.785 220.016C709.759 217.549 711.436 216.415 712.817 216.612C714.1 216.612 714.741 217.105 714.741 218.092C714.741 218.98 713.903 220.904 712.225 223.864C710.647 226.627 709.857 228.649 709.857 229.932C709.857 233.583 711.683 235.457 715.333 235.556C719.773 235.556 726.877 232.201 736.645 225.492C737.928 224.703 740.197 223.124 743.453 220.756C746.709 218.388 751.051 215.181 756.477 211.136C756.675 210.939 756.971 210.84 757.365 210.84C757.76 210.84 757.957 211.087 757.957 211.58Z" fill="white"/>
</g>
<defs>
<clipPath id="clip0_7_2">
<rect width="768" height="307" fill="white"/>
</clipPath>
</defs>
</svg>
